:::::::SPEED (1994) 720P Audio-Hindi (5.1CH) By-GPSOFT:::::::::

Complete name                            : Speed (1994) 720P Audio-Hindi (5.1CH) By-GPSOFT
Format                                   : Matroska
Format version                           : Version 2
File size                                : 2.27 GiB
Duration                                 : 1h 55mn
Overall bit rate                         : 2 811 Kbps
Movie name                               : HINDI (DD-5.1 640 Kbps) CREATED BY GPSOFT
Encoded date                             : UTC 2011-10-12 12:01:16
Writing application                      : mkvmerge v5.0.0 ('Die Wahre Liebe') built on Sep 25 2011 20:33:49
Writing library                          : libebml v1.2.2 + libmatroska v1.3.0

Video
_________________________________________________________________________________
ID                                       : 1
Format                                   : AVC
Format/Info                              : Advanced Video Codec
Format profile                           : High@L4.1
Format settings, CABAC                   : Yes
Format settings, ReFrames                : 7 frames
Muxing mode                              : Header stripping
Codec ID                                 : V_MPEG4/ISO/AVC
Duration                                 : 1h 55mn
Bit rate                                 : 1 952 Kbps
Width                                    : 1 280 pixels
Height                                   : 544 pixels
Display aspect ratio                     : 2.35:1
Frame rate                               : 23.976 fps
Color space                              : YUV
Chroma subsampling                       : 4:2:0
Bit depth                                : 8 bits
Scan type                                : Progressive
Bits/(Pixel*Frame)                       : 0.117
Stream size                              : 1.50 GiB (66%)
Writing library                          : x264 core
_________________________________________________________________________________
Audio #1

ID                                       : 2
Format                                   : AC-3
Format/Info                              : Audio Coding 3
Mode extension                           : CM (complete main)
Muxing mode                              : Header stripping
Codec ID                                 : A_AC3
Duration                                 : 1h 55mn
Bit rate mode                            : Constant
Bit rate                                 : 640 Kbps
Channel(s)                               : 6 channels
Channel positions                        : Front: L C R, Side: L R, LFE
Sampling rate                            : 48.0 KHz
Bit depth                                : 16 bits
Compression mode                         : Lossy
Delay relative to video                  : 520ms
Stream size                              : 530 MiB (23%)
Title                                    : HINDI (DD-5.1 640 Kbps) CREATED BY GPSOFT
Language                                 : Hindi

Audio #2
ID                                       : 3
Format                                   : AC-3
Format/Info                              : Audio Coding 3
Mode extension                           : CM (complete main)
Muxing mode                              : Header stripping
Codec ID                                 : A_AC3
Duration                                 : 1h 55mn
Bit rate mode                            : Constant
Bit rate                                 : 256 Kbps
Channel(s)                               : 6 channels
Channel positions                        : Front: L C R, Side: L R, LFE
Sampling rate                            : 44.1 KHz
Bit depth                                : 16 bits
Compression mode                         : Lossy
Delay relative to video                  : 1s 75ms
Stream size                              : 212 MiB (9%)
Title                                    : HINDI DD-5.1 BY-GPSOFT
Language                                 : Hindi

::::::::::::::::::::keep Seeding to alive torrent::::::::::::::::::::